/* XPM */

static char *share_icon_offline[] = {

/* columns rows colors chars-per-pixel */

"120 130 66 1 ",

"  c #FD002A",

". c #FF153C",

"X c #FF163D",

"o c #FF193F",

"O c #FF1C42",

"+ c #FF1D43",

"@ c #FF1F44",

"# c #FF2046",

"$ c #FF2247",

"% c #FF2348",

"& c #FF2549",

"* c #FF264A",

"= c #FF284C",

"- c #FF294D",

"; c #FF2B4E",

": c #FF2C4F",

"> c #F32A53",

", c #FF2F52",

"< c #FF3254",

"1 c #FF3557",

"2 c #FF3658",

"3 c #FF3859",

"4 c #FF395A",

"5 c #FF3C5D",

"6 c #FF3F5F",

"7 c #FF4262",

"8 c #FF4B69",

"9 c #FE4C6A",

"0 c #FF4E6C",

"q c #FF4F6D",

"w c #FF516E",

"e c #FF526F",

"r c #FF5470",

"t c #FF5572",

"y c #FE5673",

"u c #FF5773",

"i c #FE5774",

"p c #FF5874",

"a c #FE5975",

"s c #FE5A75",

"d c #FF5A75",

"f c #FF5E79",

"g c #FE5F7A",

"h c #FF617C",

"j c #FF647E",

"k c #D86E96",

"l c #CC719E",

"z c #EC6185",

"x c #FF6780",

"c c #FF6882",

"v c #FF6A83",

"b c #FF6B84",

"n c #FF6D85",

"m c #FF6E87",

"M c #FF7189",

"N c #FF748B",

"B c #F77B95",

"V c #FF7A90",

"C c #FF879B",

"Z c #FF96A8",

"A c #FF9DAE",

"S c #FFC5CF",

"D c #FFE8EC",

"F c #FFEBEF",

"G c #FBEFF4",

"H c None",

/* pixels */
"HHHHHHHHHHHHHHHHHHHHHHHHHHHHHHHHHHHHHHHHHHHHHHHHHHHHHHHHHHHH+HHHHHHHHHHHHHHHHHHHHHHHHHHHHHHHHHHHHHHHHHHHHHHHHHHHHHHHHHHH",

"HHHHHHHHHHHHHHHHHHHHHHHHHHHHHHHHHHHHHHHHHHHHHHHHHHHHHHHHHHH+++HHHHHHHHHHHHHHHHHHHHHHHHHHHHHHHHHHHHHHHHHHHHHHHHHHHHHHHHHH",

"HHHHHHHHHHHHHHHHHHHHHHHHHHHHHHHHHHHHHHHHHHHHHHHHHHHHHHHHHHOOO+OHHHHHHHHHHHHHHHHHHHHHHHHHHHHHHHHHHHHHHHHHHHHHHHHHHHHHHHHH",

"HHHHHHHHHHHHHHHHHHHHHHHHHHHHHHHHHHHHHHHHHHHHHHHHHHHHHHHHH+O+OO++HHHHHHHHHHHHHHHHHHHHHHHHHHHHHHHHHHHHHHHHHHHHHHHHHHHHHHHH",

"HHHHHHHHHHHHHHHHHHHHHHHHHHHHHHHHHHHHHHHHHHHHHHHHHHHHHHHHOOO+OOOO=HHHHHHHHHHHHHHHHHHHHHHHHHHHHHHHHHHHHHHHHHHHHHHHHHHHHHHH",

"HHHHHHHHHHHHHHHHHHHHHHHHHHHHHHHHHHHHHHHHHHHHHHHHHHHHHHH+++O+OO++$ HHHHHHHHHHHHHHHHHHHHHHHHHHHHHHHHHHHHHHHHHHHHHHHHHHHHHH",

"HHHHHHHHHHHHHHHHHHHHHHHHHHHHHHHHHHHHHHHHHHHHHHHHHHHHHH+O+O++++O++$$HHHHHHHHHHHHHHHHHHHHHHHHHHHHHHHHHHHHHHHHHHHHHHHHHHHHH",

"HHHHHHHHHHHHHHHHHHHHHHHHHHHHHHHHHHHHHHHHHHHHHHHHHHHHHO+O+++OOOOOOO+OHHHHHHHHHHHHHHHHHHHHHHHHHHHHHHHHHHHHHHHHHHHHHHHHHHHH",

"HHHHHHHHHHHHHHHHHHHHHHHHHHHHHHHHHHHHHHHHHHHHHHHHHHHHOO++O+OOOOOOOO+O+HHHHHHHHHHHHHHHHHHHHHHHHHHHHHHHHHHHHHHHHHHHHHHHHHHH",

"HHHHHHHHHHHHHHHHHHHHHHHHHHHHHHHHHHHHHHHHHHHHHHHHHHH+OOOOOOO+OOOO+OOO++HHHHHHHHHHHHHHHHHHHHHHHHHHHHHHHHHHHHHHHHHHHHHHHHHH",

"HHHHHHHHHHHHHHHHHHHHHHHHHHHHHHHHHHHHHHHHHHHHHHHHHH++OOO+OO+OOOOOOOOO++OHHHHHHHHHHHHHHHHHHHHHHHHHHHHHHHHHHHHHHHHHHHHHHHHH",

"HHHHHHHHHHHHHHHHHHHHHHHHHHHHHHHHHHHHHHHHHHHHHHHHHO+OOO++OOO+OOOOOOOOOOO+HHHHHHHHHHHHHHHHHHHHHHHHHHHHHHHHHHHHHHHHHHHHHHHH",

"HHHHHHHHHHHHHHHHHHHHHHHHHHHHHHHHHHHHHHHHHHHHHHHH+OOOOOO+OOOOOOOOoOOOO+OO+HHHHHHHHHHHHHHHHHHHHHHHHHHHHHHHHHHHHHHHHHHHHHHH",

"HHHHHHHHHHHHHHHHHHHHHHHHHHHHHHHHHHHHHHHHHHHHHHH+OOOOO++$7=OOOOO<<XOOOO+O++HHHHHHHHHHHHHHHHHHHHHHHHHHHHHHHHHHHHHHHHHHHHHH",

"HHHHHHHHHHHHHHHHHHHHHHHHHHHHHHHHHHHHHHHHHHHHHH+OOOOOO+$Ba1+OOOXjS,oOOOO++O+HHHHHHHHHHHHHHHHHHHHHHHHHHHHHHHHHHHHHHHHHHHHH",

"HHHHHHHHHHHHHHHHHHHHHHHHHHHHHHHHHHHHHHHHHHHHHOOOOOOOO+yGH<oO++.MFA<oOOOO+++HHHHHHHHHHHHHHHHHHHHHHHHHHHHHHHHHHHHHHHHHHHHH",

"HHHHHHHHHHHHHHHHHHHHHHHHHHHHHHHHHHHHHHHHHHHHOOOOOO@O@7HHg<@OOOO@DHC<++OOOOO+HHHHHHHHHHHHHHHHHHHHHHHHHHHHHHHHHHHHHHHHHHHH",

"HHHHHHHHHHHHHHHHHHHHHHHHHHHHHHHHHHHHHHHHHHH++O+OOOO$3HHHH,OOOO@OHHHH<+OOO+O++HHHHHHHHHHHHHHHHHHHHHHHHHHHHHHHHHHHHHHHHHHH",

"HHHHHHHHHHHHHHHHHHHHHHHHHHHHHHHHHHHHHHHHHH+OOOOOO@$1HHHHH,OOOOOOHHHHV=oOO+O++OHHHHHHHHHHHHHHHHHHHHHHHHHHHHHHHHHHHHHHHHHH",

"HHHHHHHHHHHHHHHHHHHHHHHHHHHHHHHHHHHHHHHHHOOOOOOOOO1HHHHHH,OOOOOOHHHHHV<OOO++OO+HHHHHHHHHHHHHHHHHHHHHHHHHHHHHHHHHHHHHHHHH",

"HHHHHHHHHHHHHHHHHHHHHHHHHHHHHHHHHHHHHHHH++OOOOOO@6HHHHHHH,OOOOOOHHHHHHV<++++O+OOHHHHHHHHHHHHHHHHHHHHHHHHHHHHHHHHHHHHHHHH",

"HHHHHHHHHHHHHHHHHHHHHHHHHHHHHHHHHHHHHHHOO+OOOO+$5HHHHHHHa,OOOOOOHHHHHHHM,oOO+OOO+HHHHHHHHHHHHHHHHHHHHHHHHHHHHHHHHHHHHHHH",

"HHHHHHHHHHHHHHHHHHHHHHHHHHHHHHHHHHHHHHOOOOOOOO$HHHHHHHHHa,OOOOOOHHHHHHHHN,oOOOOO+OHHHHHHHHHHHHHHHHHHHHHHHHHHHHHHHHHHHHHH",

"HHHHHHHHHHHHHHHHHHHHHHHHHHHHHHHHHHHHH+OOOOOOO+HHHHHHHHHHf<OOOOOOHHHHHHHHHb=oOOOOOO+HHHHHHHHHHHHHHHHHHHHHHHHHHHHHHHHHHHHH",

"HHHHHHHHHHHHHHHHHHHHHHHHHHHHHHHHHHHH@@OOOOOO@*HHHHHHHHHHf<OOOOOOHHHHHHHHHHH:++OOOOOOHHHHHHHHHHHHHHHHHHHHHHHHHHHHHHHHHHHH",

"HHHHHHHHHHHHHHHHHHHHHHHHHHHHHHHHHHHHOOOOOOOO&HHHHHHHHHHHk<OOOOOOHHHHHHHHHHHe&+OOOOOO+HHHHHHHHHHHHHHHHHHHHHHHHHHHHHHHHHHH",

"HHHHHHHHHHHHHHHHHHHHHHHHHHHHHHHHHHHHO@OOOO@&HHHHHHHHHHHHj<OOOOOOHHHHHHHHHHHHy&++++++HHHHHHHHHHHHHHHHHHHHHHHHHHHHHHHHHHHH",

"HHHHHHHHHHHHHHHHHHHHHHHHHHHHHHHHHHHHHHOOO@$HHHHHHHHHHHHHj<OOOOOOHHHHHHHHHHHHHH=+++5HHHHHHHHHHHHHHHHHHHHHHHHHHHHHHHHHHHHH",

"HHHHHHHHHHHHHHHHHHHHHHHHHHHHHHHHHHHHHHH@O=HHHHHHHHHHHHHHj<++OOOOHHHHHHHHHHHHHHH&O5HHHHHHHHHHHHHHHHHHHHHHHHHHHHHHHHHHHHHH",

"HHHHHHHHHHHHHHHHHHHHHHHHHHHHHHHHHHHHHHHZ1HHHHHHHHHHHHHHHj<o++OOOHHHHHHHHHHHHHHH8eHHHHHHHHHHHHHHHHHHHHHHHHHHHHHHHHHHHHHHH",

"HHHHHHHHHHHHHHHHHHHHHHHHHHHHHHHHHHHHHHHHHHHHHHHHHHHHHHHHx1OOOOOOHHHHHHHHHHHHHHHHHHHHHHHHHHHHHHHHHHHHHHHHHHHHHHHHHHHHHHHH",

"HHHHHHHHHHHHHHHHHHHHHHHHHHHHHHHHHHHHHHHHHHHHHHHHHHHHHHHHx1oOOOOOHHHHHHHHHHHHHHHHHHHHHHHHHHHHHHHHHHHHHHHHHHHHHHHHHHHHHHHH",

"HHHHHHHHHHHHHHHHHHHHHHHHHHHHHHHHHHHHHHHHHHHHHHHHHHHHHHHHc1+OOOOOHHHHHHHHHHHHHHHHHHHHHHHHHHHHHHHHHHHHHHHHHHHHHHHHHHHHHHHH",

"HHHHHHHHHHHHHHHHHHHHHHHHHHHHHHHHHHHHHHHHHHHHHHHHHHHHHHHHH1OOOO++HHHHHHHHHHHHHHHHHHHHHHHHHHHHHHHHHHHHHHHHHHHHHHHHHHHHHHHH",

"HHHHHHHHHHHHHHHHHHHHHHHHHHHHHHHHHHHHHHHHHHHHHHHHHHHHHHHHH1X+OOOOHHHHHHHHHHHHHHHHHHHHHHHHHHHHHHHHHHHHHHHHHHHHHHHHHHHHHHHH",

"HHHHHHHHHHHHHHHHHHHHHHHHHHHHHHHHHHHHHHHHHHHHHHHHHHHHHHHHH1o+OO+OHHHHHHHHHHHHHHHHHHHHHHHHHHHHHHHHHHHHHHHHHHHHHHHHHHHHHHHH",

"HHHHHHHHHHHHHH+@O++++++++++++++++++OOOOO+O++++++HHHHHHHHH1++OOO+HHHHHHHHH++++++O+++++++++++++O+++++++O+O++OHHHHHHHHHHHHH",

"HHHHHHHHHHHHHH++++++OOOOO+OOOOOO++OOOOOOO+OO+OOOHHHHHHHHH1XOOOO+HHHHHHHHH+OOOOOO+O++++OO+OOOOOOOOOOO+OO+OO+HHHHHHHHHHHHH",

"HHHHHHHHHHHHHH+O+OOOOOOOOOOOOOOOO++OOOOOOO+OOOOOHHHHHHHHH1OOOOOOHHHHHHHHHO+OOOO++OOOOOOOOOOOOOOO+OO++OOOOO+HHHHHHHHHHHHH",

"HHHHHHHHHHHHHHOOOOOOOOOOOOOOOOOOOO+OOOOO+OOOOOOOHHHHHHHHH3OOO+OOHHHHHHHHH++OOOOOOOOOOOOOO+OOOOOO+OOOO+OOOOOHHHHHHHHHHHHH",

"HHHHHHHHHHHHHH++OOOOOOO++OOOOOOO+OOOOOOOOOOOOOOOHHHHHHHHM1oOOOOOHHHHHHHHH++O+OOOOO+OOOOOOOOOOOO+OO+OO+OOOOOHHHHHHHHHHHHH",

"HHHHHHHHHHHHHHOOOOOOOO++O+O+OOO+OOO+OOO++O++OOOOHHHHHHHHM1oO+OOOHHHHHHHHH+OOOOO+OOO+OOOOO@OOOOO+O+OOO+OOOO+HHHHHHHHHHHHH",

"HHHHHHHHHHHHHHOOOO+&HHHHHHHHHHHHHHHHHHHHHHHHHHHHHHHHHHHHM1o+OOOOHHHHHHHHHHHHHHHHHHHHHHHHHHHHHHHHHHHHH&OOOOOHHHHHHHHHHHHH",

"HHHHHHHHHHHHHHOOOO+=HHHHHHHHHHHHHHHHHHHHHHHHHHHHHHHHHHHHM1o+OOOOHHHHHHHHHHHHHHHHHHHHHHHHHHHHHHHHHHHHH&OOOO+HHHHHHHHHHHHH",

"HHHHHHHHHHHHHH++OOO=HHHHHHHHHHHHHHHHHHHHHHHHHHHHHHHHHHHHM3O+OOOOHHHHHHHHHHHHHHHHHHHHHHHHHHHHHHHHHHHHH>O++OOHHHHHHHHHHHHH",

"HHHHHHHHHHHHHHOOOOO&HHHHHHHHHHHHHHHHHHHHHHHHHHHHHHHHHHHHb1o+OOOOHHHHHHHHHHHHHHHHHHHHHHHHHHHHHHHHHHHHH&O+OO+HHHHHHHHHHHHH",

"HHHHHHHHHHHHHHOOOO+&HHHHHHHHHHHHHHHHHHHHHHHHHHHHHHHHHHHHM3o+OOOOHHHHHHHHHHHHHHHHHHHHHHHHHHHHHHHHHHHHH&@O++OHHHHHHHHHHHHH",

"HHHHHHHHHHHHHHOOO++&HHHHHHHHHHHHHHHHHHHHHHHHHHHHHHHHHHHHM1oOOOOOHHHHHHHHHHHHHHHHHHHHHHHHHHHHHHHHHHHHH&+++++HHHHHHHHHHHHH",

"HHHHHHHHHHHHHHOOOO+&HHHHHHHHHHHHHHHHHHHHHHHHHHHHHHHHHHHHM1OOOOOOHHHHHHHHHHHHHHHHHHHHHHHHHHHHHHHHHHHHH&OOOO+HHHHHHHHHHHHH",

"HHHHHHHHHHHHHHO+OO+&HHHHHHHHHHHHHHHHHHHHHHHHHHHHHHHHHHHHb1oOO+OOHHHHHHHHHHHHHHHHHHHHHHHHHHHHHHHHHHHHH&OOOOOHHHHHHHHHHHHH",

"HHHHHHHHHHHHHH+OOOO&HHHHHHHHHHHHHHHHHHHHHHHHHHHHHHHHHHHHv1oOOOOOHHHHHHHHHHHHHHHHHHHHHHHHHHHHHHHHHHHHH&O+O++HHHHHHHHHHHHH",

"HHHHHHHHHHHHHH+OOOO&HHHHHHHHHHHHHHHHHHHHHHHHHHHHHHHHHHHHv1oOOO+OHHHHHHHHHHHHHHHHHHHHHHHHHHHHHHHHHHHHH*O++O+HHHHHHHHHHHHH",

"HHHHHHHHHHHHHHOOOO@&HHHHHHHHHHHHHHHHHHHHHHHHHHHHHHHHHHHHb1OOOOOOHHHHHHHHHHHHHHHHHHHHHHHHHHHHHHHHHHHHH&@+++OHHHHHHHHHHHHH",

"HHHHHHHHHHHHHHOOOO+&HHHHHHHHHHHHHHHHHHHHHHHHHHHHHHHHHHHHb1oOOOOOHHHHHHHHHHHHHHHHHHHHHHHHHHHHHHHHHHHHH&+++++HHHHHHHHHHHHH",

"HHHHHHHHHHHHHHOOOO+&HHHHHHHHHHHHHHHHHHHHHHHHHHHHHHHHHHHHv1oOO+OOHHHHHHHHHHHHHHHHHHHHHHHHHHHHHHHHHHHHH&O+++OHHHHHHHHHHHHH",

"HHHHHHHHHHHHHH+OOO+&HHHHHHHHHHHHHHHHHHHHHHHHHHHHHHHHHHHHx1O+O++OHHHHHHHHHHHHHHHHHHHHHHHHHHHHHHHHHHHHH&O++++HHHHHHHHHHHHH",

"HHHHHHHHHHHHHH+O+++&HHHHHHHHHHHHHHHHHHHHHHHHHHHHHHHHHHHHx1+OO++OHHHHHHHHHHHHHHHHHHHHHHHHHHHHHHHHHHHHH*@++OOHHHHHHHHHHHHH",

"HHHHHHHHHHHHHHOO+O+&HHHHHHHHHHHHHHHHHHHHHHHHHHHHHHHHHHHHx1OOO+OOHHHHHHHHHHHHHHHHHHHHHHHHHHHHHHHHHHHHH*O++OOHHHHHHHHHHHHH",

"HHHHHHHHHHHHHHOO+O+&HHHHHHHHHHHHHHHHHHHHHHHHHHHHHHHHHHHHj<OOO+OOHHHHHHHHHHHHHHHHHHHHHHHHHHHHHHHHHHHHH&OO+++HHHHHHHHHHHHH",

"HHHHHHHHHHHHHH+O+++&HHHHHHHHHHHHHHHHHHHHHHHHHHHHHHHHHHHHj<OOO+OOHHHHHHHHHHHHHHHHHHHHHHHHHHHHHHHHHHHHH&OOO++HHHHHHHHHHHHH",

"HHHHHHHHHHHHHH+O+O+&HHHHHHHHHHHHHHHHHHHHHHHHHHHHHHHHHHHHj<OOO+OOHHHHHHHHHHHHHHHHHHHHHHHHHHHHHHHHHHHHH*@O+OOHHHHHHHHHHHHH",

"HHHHHHHHHHHHHH+O+O@&HHHHHHHHHHHHHHHHHHHHHHHHHHHHHHHHHHHHh<OOO+OOHHHHHHHHHHHHHHHHHHHHHHHHHHHHHHHHHHHHH*OOOOOHHHHHHHHHHHHH",

"HHHHHHHHHHHHHH+++OO&HHHHHHHHHHHHHHHHHHHHHHHHHHHHHHHHHHHHh1OOO+OOHHHHHHHHHHHHHHHHHHHHHHHHHHHHHHHHHHHHH&OOO++HHHHHHHHHHHHH",

"HHHHHHHHHHHHHH+OO+O&HHHHHHHHHHHHHHHHHHHHHHHHHHHHHHHHHHHHh<OOOO+OHHHHHHHHHHHHHHHHHHHHHHHHHHHHHHHHHHHHH&OOOO+HHHHHHHHHHHHH",

"HHHHHHHHHHHHHHOOO++&HHHHHHHHHHHHHHHHHHHHHHHHHHHHHHHHHHHHl<++++++HHHHHHHHHHHHHHHHHHHHHHHHHHHHHHHHHHHHH&+++OOHHHHHHHHHHHHH",

"HHHHHHHHHHHHHHOOO++&HHHHHHHHHHHHHHHHHHHHHHHHHHHHHHHHHHHHz<+o+o+oHHHHHHHHHHHHHHHHHHHHHHHHHHHHHHHHHHHHH&O+OOOHHHHHHHHHHHHH",

"HHHHHHHHHHHHHHOOOO+&HHHHHHHHHHHHHHHHHHHHHHHHHHHHHHHHHHHHu<++o+++HHHHHHHHHHHHHHHHHHHHHHHHHHHHHHHHHHHHH&OOOO+HHHHHHHHHHHHH",

"HHHHHHHHHHHHHHOOOO+&HHHHHHHHHHHHHHHHHHHHHHHHHHHHHHHHHHHHa:+o++++HHHHHHHHHHHHHHHHHHHHHHHHHHHHHHHHHHHHH&OOOOOHHHHHHHHHHHHH",

"HHHHHHHHHHHHHH+OOOO&HHHHHHHHHHHHHHHHHHHHHHHHHHHHHHHHHHHHs,+++o+oHHHHHHHHHHHHHHHHHHHHHHHHHHHHHHHHHHHHH&++OOOHHHHHHHHHHHHH",

"HHHHHHHHHHHHHHOOOO+&HHHHHHHHHHHHHHHHHHHHHHHHHHHHHHHHHHHHs<+o++++HHHHHHHHHHHHHHHHHHHHHHHHHHHHHHHHHHHHH&O+OOOHHHHHHHHHHHHH",

"HHHHHHHHHHHHHHOOOO+&HHHHHHHHHHHHHHHHHHHHHHHHHHHHHHHHHHHHa:+++o++HHHHHHHHHHHHHHHHHHHHHHHHHHHHHHHHHHHHH&OOOO+HHHHHHHHHHHHH",

"HHHHHHHHHHHHHHOOO++&HHHHHHHHHHHHHHHHHHHHHHHHHHHHHHHHHHHHu<+o++o+HHHHHHHHHHHHHHHHHHHHHHHHHHHHHHHHHHHHH&OOOOOHHHHHHHHHHHHH",

"HHHHHHHHHHHHHHOOOO+&HHHHHHHHHHHHHHHHHHHHHHHHHHHHHHHHHHHHy:+o+++oHHHHHHHHHHHHHHHHHHHHHHHHHHHHHHHHHHHHH&@OOOOHHHHHHHHHHHHH",

"HHHHHHHHHHHHHHOOOO+&HHHHHHHHHHHHHHHHHHHHHHHHHHHHHHHHHHHHy,++o+++HHHHHHHHHHHHHHHHHHHHHHHHHHHHHHHHHHHHH&+OOO+HHHHHHHHHHHHH",

"HHHHHHHHHHHHHH+OOOO&HHHHHHHHHHHHHHHHHHHHHHHHHHHHHHHHHHHHu<+++o+oHHHHHHHHHHHHHHHHHHHHHHHHHHHHHHHHHHHHH&OOOOOHHHHHHHHHHHHH",

"HHHHHHHHHHHHHHOO+OO&HHHHHHHHHHHHHHHHHHHHHHHHHHHHHHHHHHHHe=+o++++HHHHHHHHHHHHHHHHHHHHHHHHHHHHHHHHHHHHH&OOOO+HHHHHHHHHHHHH",

"HHHHHHHHHHHHHHOOO++*HHHHHHHHHHHHHHHHHHHHHHHHHHHHHHHHHHHHe=+++O+OHHHHHHHHHHHHHHHHHHHHHHHHHHHHHHHHHHHHH&OO++OHHHHHHHHHHHHH",

"HHHHHHHHHHHHHHOOO++&HHHHHHHHHHHHHHHHHHHHHHHHHHHHHHHHHHHHe,++OOOOHHHHHHHHHHHHHHHHHHHHHHHHHHHHHHHHHHHHH&OOOO+HHHHHHHHHHHHH",

"HHHHHHHHHHHHHHOOOO+&HHHHHHHHHHHHHHHHHHHHHHHHHHHHHHHHHHHHe,OOOOOOHHHHHHHHHHHHHHHHHHHHHHHHHHHHHHHHHHHHH=+++OOHHHHHHHHHHHHH",

"HHHHHHHHHHHHHHOOOO+&HHHHHHHHHHHHHHHHHHHHHHHHHHHHHHHHHHHH0,OOOOOOHHHHHHHHHHHHHHHHHHHHHHHHHHHHHHHHHHHHH=++++OHHHHHHHHHHHHH",

"HHHHHHHHHHHHHH+OOOO&HHHHHHHHHHHHHHHHHHHHHHHHHHHHHHHHHHHH0,+OOOO+HHHHHHHHHHHHHHHHHHHHHHHHHHHHHHHHHHHHH&OO+O+HHHHHHHHHHHHH",

"HHHHHHHHHHHHHHOOOO+&HHHHHHHHHHHHHHHHHHHHHHHHHHHHHHHHHHHH0,OOO+OOHHHHHHHHHHHHHHHHHHHHHHHHHHHHHHHHHHHHH&OOOOOHHHHHHHHHHHHH",

"HHHHHHHHHHHHHH+OOO+&HHHHHHHHHHHHHHHHHHHHHHHHHHHHHHHHHHHH0,O++OO+HHHHHHHHHHHHHHHHHHHHHHHHHHHHHHHHHHHHH&OOO+OHHHHHHHHHHHHH",

"HHHHHHHHHHHHHHOO+++&HHHHHHHHHHHHHHHHHHHHHHHHHHHHHHHHHHHH0=OOOOOOHHHHHHHHHHHHHHHHHHHHHHHHHHHHHHHHHHHHH&+OOO+HHHHHHHHHHHHH",

"HHHHHHHHHHHHHH+OOOO&HHHHHHHHHHHHHHHHHHHHHHHHHHHHHHHHHHHH0:OOOOOOHHHHHHHHHHHHHHHHHHHHHHHHHHHHHHHHHHHHH&@OOOOHHHHHHHHHHHHH",

"HHHHHHHHHHHHHHOOOOO&HHHHHHHHHHHHHHHHHHHHHHHHHHHHHHHHHHHHe=OOOOOOHHHHHHHHHHHHHHHHHHHHHHHHHHHHHHHHHHHHH=++OO+HHHHHHHHHHHHH",

"HHHHHHHHHHHHHHOOOO+&HHHHHHHHHHHHHHHHHHHHHHHHHHHHHHHHHHHH0=++OOOOHHHHHHHHHHHHHHHHHHHHHHHHHHHHHHHHHHHHH&OOOOOHHHHHHHHHHHHH",

"HHHHHHHHHHHHHHOO+++&HHHHHHHHHHHHHHHHHHHHHHHHHHHHHHHHHHHH0:++OOOOHHHHHHHHHHHHHHHHHHHHHHHHHHHHHHHHHHHHH&OOOO+HHHHHHHHHHHHH",

"HHHHHHHHHHHHHH+OOOO&HHHHHHHHHHHHHHHHHHHHHHHHHHHHHHHHHHHH0,OOOOOOHHHHHHHHHHHHHHHHHHHHHHHHHHHHHHHHHHHHH*@+OOOHHHHHHHHHHHHH",

"HHHHHHHHHHHHHHOOOOO&HHHHHHHHHHHHHHHHHHHHHHHHHHHHHHHHHHHH0=O+OOOOHHHHHHHHHHHHHHHHHHHHHHHHHHHHHHHHHHHHH*OOO+OHHHHHHHHHHHHH",

"HHHHHHHHHHHHHHOOOO+&HHHHHHHHHHHHHHHHHHHHHHHHHHHHHHHHHHHH0=OO+OOOHHHHHHHHHHHHHHHHHHHHHHHHHHHHHHHHHHHHH&OO+O+HHHHHHHHHHHHH",

"HHHHHHHHHHHHHHOO+++&HHHHHHHHHHHHHHHHHHHHHHHHHHHHHHHHHHHH0:O+OO+OHHHHHHHHHHHHHHHHHHHHHHHHHHHHHHHHHHHHH&OO+OOHHHHHHHHHHHHH",

"HHHHHHHHHHHHHH+OOOO&HHHHHHHHHHHHHHHHHHHHHHHHHHHHHHHHHHHH0,++OOO+HHHHHHHHHHHHHHHHHHHHHHHHHHHHHHHHHHHHH*@OOOOHHHHHHHHHHHHH",

"HHHHHHHHHHHHHHOOOOO&HHHHHHHHHHHHHHHHHHHHHHHHHHHHHHHHHHHHH=OOO+OHHHHHHHHHHHHHHHHHHHHHHHHHHHHHHHHHHHHHH=OO+O+HHHHHHHHHHHHH",

"HHHHHHHHHHHHHHOO+++*HHHHHHHHHHHHHHHHHHHHHHHHHHHHHHHHHHHHHHHHHHHHHHHHHHHHHHHHHHHHHHHHHHHHHHHHHHHHHHHHH=OOOO+HHHHHHHHHHHHH",

"HHHHHHHHHHHHHH+O+++*HHHHHHHHHHHHHHHHHHHHHHHHHHHHHHHHHHHHHHHHHHHHHHHHHHHHHHHHHHHHHHHHHHHHHHHHHHHHHHHHH&@OOOOHHHHHHHHHHHHH",

"HHHHHHHHHHHHHHOOOOO&HHHHHHHHHHHHHHHHHHHHHHHHHHHHHHHHHHHHHHHHHHHHHHHHHHHHHHHHHHHHHHHHHHHHHHHHHHHHHHHHH*@OOOOHHHHHHHHHHHHH",

"HHHHHHHHHHHHHHOOO++&HHHHHHHHHHHHHHHHHHHHHHHHHHHHHHHHHHHHHHHHHHHHHHHHHHHHHHHHHHHHHHHHHHHHHHHHHHHHHHHHH&OOOOOHHHHHHHHHHHHH",

"HHHHHHHHHHHHHH+O+++&HHHHHHHHHHHHHHHHHHHHHHHHHHHHHHHHHHHHHHHHHHHHHHHHHHHHHHHHHHHHHHHHHHHHHHHHHHHHHHHHH*OOOO+HHHHHHHHHHHHH",

"HHHHHHHHHHHHHHOOO++&HHHHHHHHHHHHHHHHHHHHHHHHHHHHHHHHHHHHHHHHHHHHHHHHHHHHHHHHHHHHHHHHHHHHHHHHHHHHHHHHH&OOOOOHHHHHHHHHHHHH",

"HHHHHHHHHHHHHH++O++&HHHHHHHHHHHHHHHHHHHHHHHHHHHHHHHHHHHHHHHHHHHHHHHHHHHHHHHHHHHHHHHHHHHHHHHHHHHHHHHHH*@OO+OHHHHHHHHHHHHH",

"HHHHHHHHHHHHHHOOOO+&HHHHHHHHHHHHHHHHHHHHHHHHHHHHHHHHHHHHHHHHHHHHHHHHHHHHHHHHHHHHHHHHHHHHHHHHHHHHHHHHH*OOOOOHHHHHHHHHHHHH",

"HHHHHHHHHHHHHHOOOOO&HHHHHHHHHHHHHHHHHHHHHHHHHHHHHHHHHHHHHHHHHHHHHHHHHHHHHHHHHHHHHHHHHHHHHHHHHHHHHHHHH&OOOO+HHHHHHHHHHHHH",

"HHHHHHHHHHHHHHOOOOO&HHHHHHHHHHHHHHHHHHHHHHHHHHHHHHHHHHHHHHHHHHHHHHHHHHHHHHHHHHHHHHHHHHHHHHHHHHHHHHHHH&OOOO+HHHHHHHHHHHHH",

"HHHHHHHHHHHHHH+OOO@&HHHHHHHHHHHHHHHHHHHHHHHHHHHHHHHHHHHHHHHHHHHHHHHHHHHHHHHHHHHHHHHHHHHHHHHHHHHHHHHHH*@OOOOHHHHHHHHHHHHH",

"HHHHHHHHHHHHHHOOOO+&HHHHHHHHHHHHHHHHHHHHHHHHHHHHHHHHHHHHHHHHHHHHHHHHHHHHHHHHHHHHHHHHHHHHHHHHHHHHHHHHH*O@OO+HHHHHHHHHHHHH",

"HHHHHHHHHHHHHHOOOO+&HHHHHHHHHHHHHHHHHHHHHHHHHHHHHHHHHHHHHHHHHHHHHHHHHHHHHHHHHHHHHHHHHHHHHHHHHHHHHHHHH&OO+OOHHHHHHHHHHHHH",

"HHHHHHHHHHHHHHO+OO+&HHHHHHHHHHHHHHHHHHHHHHHHHHHHHHHHHHHHHHHHHHHHHHHHHHHHHHHHHHHHHHHHHHHHHHHHHHHHHHHHH&OOOO+HHHHHHHHHHHHH",

"HHHHHHHHHHHHHHOOOOO&HHHHHHHHHHHHHHHHHHHHHHHHHHHHHHHHHHHHHHHHHHHHHHHHHHHHHHHHHHHHHHHHHHHHHHHHHHHHHHHHH*OOOOOHHHHHHHHHHHHH",

"HHHHHHHHHHHHHHOOOO+&HHHHHHHHHHHHHHHHHHHHHHHHHHHHHHHHHHHHHHHHHHHHHHHHHHHHHHHHHHHHHHHHHHHHHHHHHHHHHHHHH*O@OO+HHHHHHHHHHHHH",

"HHHHHHHHHHHHHH++OO+&HHHHHHHHHHHHHHHHHHHHHHHHHHHHHHHHHHHHHHHHHHHHHHHHHHHHHHHHHHHHHHHHHHHHHHHHHHHHHHHHH*@OOOOHHHHHHHHHHHHH",

"HHHHHHHHHHHHHH++O++&HHHHHHHHHHHHHHHHHHHHHHHHHHHHHHHHHHHHHHHHHHHHHHHHHHHHHHHHHHHHHHHHHHHHHHHHHHHHHHHHH*OOO+OHHHHHHHHHHHHH",

"HHHHHHHHHHHHHHOOOOO&HHHHHHHHHHHHHHHHHHHHHHHHHHHHHHHHHHHHHHHHHHHHHHHHHHHHHHHHHHHHHHHHHHHHHHHHHHHHHHHHH&O++O+HHHHHHHHHHHHH",

"HHHHHHHHHHHHHH+OOO+&HHHHHHHHHHHHHHHHHHHHHHHHHHHHHHHHHHHHHHHHHHHHHHHHHHHHHHHHHHHHHHHHHHHHHHHHHHHHHHHHH&OOOOOHHHHHHHHHHHHH",

"HHHHHHHHHHHHHH+OOO+&HHHHHHHHHHHHHHHHHHHHHHHHHHHHHHHHHHHHHHHHHHHHHHHHHHHHHHHHHHHHHHHHHHHHHHHHHHHHHHHHH&O+OO+HHHHHHHHHHHHH",

"HHHHHHHHHHHHHHO+O++&HHHHHHHHHHHHHHHHHHHHHHHHHHHHHHHHHHHHHHHHHHHHHHHHHHHHHHHHHHHHHHHHHHHHHHHHHHHHHHHHH*OOOO+HHHHHHHHHHHHH",

"HHHHHHHHHHHHHH+OOO+&HHHHHHHHHHHHHHHHHHHHHHHHHHHHHHHHHHHHHHHHHHHHHHHHHHHHHHHHHHHHHHHHHHHHHHHHHHHHHHHHH&@OO+OHHHHHHHHHHHHH",

"HHHHHHHHHHHHHH+++O@&HHHHHHHHHHHHHHHHHHHHHHHHHHHHHHHHHHHHHHHHHHHHHHHHHHHHHHHHHHHHHHHHHHHHHHHHHHHHHHHHH&+O+++HHHHHHHHHHHHH",

"HHHHHHHHHHHHHHOO++O&HHHHHHHHHHHHHHHHHHHHHHHHHHHHHHHHHHHHHHHHHHHHHHHHHHHHHHHHHHHHHHHHHHHHHHHHHHHHHHHHH&OOO++HHHHHHHHHHHHH",

"HHHHHHHHHHHHHHOOOO+&HHHHHHHHHHHHHHHHHHHHHHHHHHHHHHHHHHHHHHHHHHHHHHHHHHHHHHHHHHHHHHHHHHHHHHHHHHHHHHHHH&OOOO+HHHHHHHHHHHHH",

"HHHHHHHHHHHHHHOOOO+=HHHHHHHHHHHHHHHHHHHHHHHHHHHHHHHHHHHHHHHHHHHHHHHHHHHHHHHHHHHHHHHHHHHHHHHHHHHHHHHHH&+@+OOHHHHHHHHHHHHH",

"HHHHHHHHHHHHHHOOOOO&HHHHHHHHHHHHHHHHHHHHHHHHHHHHHHHHHHHHHHHHHHHHHHHHHHHHHHHHHHHHHHHHHHHHHHHHHHHHHHHHH&O+++OHHHHHHHHHHHHH",

"HHHHHHHHHHHHHH+OOOO&HHHHHHHHHHHHHHHHHHHHHHHHHHHHHHHHHHHHHHHHHHHHHHHHHHHHHHHHHHHHHHHHHHHHHHHHHHHHHHHHH&OOOO+HHHHHHHHHHHHH",

"HHHHHHHHHHHHHHOOOOOOO+OO@@+O++++OO+++O+OO+OOO+OO+O+O+O++OO+O+O+OO+OOO+O++O+O+OO+OO+O+++OO+OOO+OO@++O+O++OOOHHHHHHHHHHHHH",

"HHHHHHHHHHHHHHOOOOOO++O++OOO+OOOOOOOO++OOOOOOOOOOOOOOOOOOOOOO+OOOOOOOOOOOOOO+OOOOOOOOOOOOOOOOO+OOO+O++OOOOOHHHHHHHHHHHHH",

"HHHHHHHHHHHHHHOOOO+OOOO+OOOOOO+OOOOOOOOOOOOOOOOOOOOOOOOOOOOOOOOOOOOOOOOOO+OOOO++++++OOO+++++OOOOO++OOO+OOOOHHHHHHHHHHHHH",

"HHHHHHHHHHHHHH+OOOOOO+OOOOOOOO++OOOOOOOOOOOOOOOOOOOOOOOOOOOOOOOOOOO+O+OOOO+O++OOOOO+OO++++O+O+OO+OOOOOOOOO+HHHHHHHHHHHHH",

"HHHHHHHHHHHHHHOOOOOOOOOOOOOOOOOOOOOOOOOOOOOOOOOOOOOOOOOOOOOOOOOOO+OOOOOOOOOOOOOOOOOOOOOOOOOOOOOOOOOOOOOOOOOHHHHHHHHHHHHH",

"HHHHHHHHHHHHHH111311131131113511111131151111311511111511111151111311511113111111115111111511111511111151111HHHHHHHHHHHHH",

"HHHHHHHHHHHHHHHHHHHHHHHHHHHHHHHHHHHHHHHHHHHHHHHHHHHHHHHHHHHHHHHHHHHHHHHHHHHHHHHHHHHHHHHHHHHHHHHHHHHHHHHHHHHHHHHHHHHHHHHH"

};
